<?xml version="1.0" standalone="no"?><!DOCTYPE svg PUBLIC "-//W3C//DTD SVG 1.1//EN" "http://www.w3.org/Graphics/SVG/1.1/DTD/svg11.dtd"><svg t="1728746885548" class="icon" viewBox="0 0 1024 1024" version="1.1" xmlns="http://www.w3.org/2000/svg" p-id="11883" xmlns:xlink="http://www.w3.org/1999/xlink" width="200" height="200"><path d="M299.2 358.4v204.8h427.2v-204.8c0-44.8 70.4-115.2 115.2-115.2h62.4v-116.8c0-41.6-33.6-75.2-75.2-75.2h-632c-41.6 0-75.2 33.6-75.2 75.2v116.8h62.4c44.8 1.6 115.2 70.4 115.2 115.2z m193.6-232h36.8v187.2h-36.8v-187.2z m-89.6 40l27.2 27.2c-28.8 24-48 60.8-48 100.8 0 72 59.2 131.2 131.2 131.2s131.2-59.2 131.2-131.2c0-41.6-19.2-76.8-48-100.8l27.2-27.2c36.8 30.4 59.2 76.8 59.2 128 0 92.8-75.2 168-168 168s-168-75.2-168-168c-3.2-51.2 19.2-97.6 56-128z" p-id="11884" fill="#d81e06"></path><path d="M921.6 288h-60.8c-44.8 0-81.6 36.8-81.6 81.6v243.2h-536v-241.6c0-44.8-36.8-81.6-81.6-81.6h-60.8c-44.8 0-81.6 36.8-81.6 81.6v510.4c0 44.8 36.8 81.6 81.6 81.6h81.6c44.8 0 81.6-36.8 81.6-81.6v-25.6h494.4v25.6c0 44.8 36.8 81.6 81.6 81.6h81.6c44.8 0 81.6-36.8 81.6-81.6v-510.4c-1.6-46.4-36.8-83.2-81.6-83.2z" p-id="11885" fill="#d81e06"></path></svg>