<?xml version="1.0" standalone="no"?><!DOCTYPE svg PUBLIC "-//W3C//DTD SVG 1.1//EN" "http://www.w3.org/Graphics/SVG/1.1/DTD/svg11.dtd"><svg t="1728747030297" class="icon" viewBox="0 0 1024 1024" version="1.1" xmlns="http://www.w3.org/2000/svg" p-id="16698" xmlns:xlink="http://www.w3.org/1999/xlink" width="200" height="200"><path d="M0 670.464C0 724.096 43.904 768 97.536 768h292.544v121.92H219.456a48.896 48.896 0 0 0-48.768 48.768c0 26.816 21.952 48.768 48.768 48.768h585.152a48.896 48.896 0 0 0 48.768-48.768 48.896 48.896 0 0 0-48.768-48.768H633.92V768h292.544c53.632 0 97.536-43.904 97.536-97.536v-48.768H0v48.768zM926.464 36.544H97.536C43.904 36.544 0 80.448 0 134.08v438.848h1024V134.08c0-53.632-43.904-97.536-97.536-97.536z m0 0" fill="#d81e06" p-id="16699"></path></svg>